# xmcd CD database file
#
# Track frame offsets:
#	150
#	21802
#	49195
#	71830
#	96550
#	113218
#	140308
#	163123
#	180080
#	199955
#
# Disc length: 2897 seconds
#
# Revision: 1
# Processed by: cddbd v1.5.2PL0 Copyright (c) Steve Scherf et al.
# Submitted via: CDex 1.51
#
DISCID=8c0b4f0a
DTITLE=Grupo Merencumbe  - Merengue and Cumbia
DYEAR=1900
DGENRE=Salsa
TTITLE0=Cosita linda
TTITLE1=Cumbia cienaguera
TTITLE2=Río crecido
TTITLE3=El negrito del batey
TTITLE4=Playa brisa y mar
TTITLE5=Tina Tina, Colombia tierra querida
TTITLE6=Momposina
TTITLE7=Total
TTITLE8=Sal si puedes
TTITLE9=Isla del enanto
EXTD=
EXTT0=
EXTT1=
EXTT2=
EXTT3=
EXTT4=
EXTT5=
EXTT6=
EXTT7=
EXTT8=
EXTT9=
PLAYORDER=
